General Information
Date April 3rd, 2010
Location Georgia Dome - Atlanta, Georgia
Source: 1080i High Definition capture from SBO HD2 at 13MB/s, compressed to standard size HDTV XviD
Video
ID : 0
Format : MPEG-4 Visual
Format profile : Advanced Simple@L5
Format settings, BVOP : 1
Format settings, QPel : No
Format settings, GMC : No warppoints
Format settings, Matrix : Default (H.263)
Muxing mode : Packed bitstream
Codec ID : XVID
Codec ID/Hint : XviD
Duration : 3h 58mn
Bit rate : 1 091 Kbps
Width : 624 pixels
Height : 352 pixels
Display aspect ratio : 16:9
Frame rate : 25.000 fps
Color space : YUV
Chroma subsampling : 4:2:0
Bit depth : 8 bits
Scan type : Progressive
Compression mode : Lossy
Bits/(Pixel*Frame) : 0.199
Stream size : 1.82 GiB (89%)
Writing library : XviD 1.0.3 (UTC 2004-12-20)
Audio
ID : 1
Format : MPEG Audio
Format version : Version 1
Format profile : Layer 3
Mode : Joint stereo
Mode extension : MS Stereo
Codec ID : 55
Codec ID/Hint : MP3
Duration : 5h 8mn
Bit rate mode : Constant
Bit rate : 128 Kbps
Channel(s) : 2 channels
Sampling rate : 48.0 KHz
Compression mode : Lossy
Stream size : 218 MiB (10%)
Alignment : Aligned on interleaves
Interleave, duration : 40 ms (1.00 video frame)
Interleave, preload duration : 480 ms

Fight Card
1. Edge © vs. Alberto Del Rio - Singles match for the World Heavyweight Championship
2. The Miz © vs. John Cena - Singles match for the WWE Championship
3. Triple H vs. The Undertaker - No Holds Barred match
4. Jerry Lawler vs. Michael Cole - Singles match with special guest referee Steve Austin
5. Randy Orton vs. CM Punk - Singles match
6. Rey Mysterio vs. Cody Rhodes - Singles match
7. Snooki, Trish Stratus and John Morrison vs. Dolph Ziggler and LayCool - 6 person mixed tag team match
8. Kane, Big Show, Santino Marella, and Kofi Kingston vs. The Corre - 8 man tag team match
© – refers to the champion(s) heading into the match